#!OML:ASF E:\motion texture\Top Level 1\Subject 1\Session 1\male.ASF
:FULLY-SPECIFIED
:DEGREES
143
root 13.4207 17.9002 5.53997 185.114 -86.7931 -183.13
lowerback -0.456426 -2.79264 -2.89732
upperback -2.41613 -3.74798 3.41474
thorax -1.8183 -1.81528 5.18322
lowerneck -14.5872 -3.49439 -5.99393
upperneck 20.757 -5.48017 7.54922
head 9.31203 -2.34758 2.90101
rclavicle -1.14798e-014 2.70347e-014
rhumerus -30.9061 -25.6238 -56.2501
rradius 37.5224
rwrist 4.26752
rhand -13.7506 -23.6902
rfingers 7.12502
rthumb 12.3696 -53.3043
lclavicle -1.14798e-014 2.70347e-014
lhumerus -18.044 16.565 69.2146
lradius 47.846
lwrist -3.99158
lhand -10.5953 25.7345
lfingers 7.12502
lthumb 15.4103 55.1401
rfemur -30.6555 -5.00312 18.2203
rtibia 60.7977
rfoot -2.99241 -15.5389
rtoes 7.58073
lfemur -3.38054 -3.11926 -22.7839
ltibia 12.3629
lfoot -8.83106 1.3178
ltoes 4.66478
144
root 13.2985 17.8927 5.54037 186.954 -86.9101 -184.959
lowerback -0.355557 -2.86683 -2.99596
upperback -2.38673 -3.84824 3.34624
thorax -1.83187 -1.86339 5.17201
lowerneck -14.8622 -3.47656 -5.85388
upperneck 20.7107 -5.5273 7.78742
head 9.35459 -2.32626 2.95102
rclavicle -2.15681e-014 3.02153e-014
rhumerus -31.0589 -25.9176 -57.5671
rradius 34.8982
rwrist 6.36569
rhand -12.7689 -22.9682
rfingers 7.12502
rthumb 13.3159 -52.5227
lclavicle -2.15681e-014 3.02153e-014
lhumerus -18.9474 15.2639 71.3394
lradius 46.8721
lwrist -5.97171
lhand -10.1909 24.8474
lfingers 7.12502
lthumb 15.7998 54.2227
rfemur -31.2072 -5.04698 18.1532
rtibia 59.131
rfoot -3.57246 -15.6895
rtoes 7.18212
lfemur -2.88168 -3.18169 -22.9729
ltibia 12.2498
lfoot -9.18152 1.30249
ltoes 4.59513
145
root 13.1752 17.8843 5.54082 188.774 -87.0009 -186.752
lowerback -0.266863 -2.93395 -3.07108
upperback -2.352 -3.93897 3.27585
thorax -1.83569 -1.90751 5.14479
lowerneck -15.1634 -3.46293 -5.72041
upperneck 20.6616 -5.58216 8.04092
head 9.40268 -2.30659 3.00634
rclavicle -1.12313e-014 -1.98785e-014
rhumerus -31.2727 -26.6677 -58.6508
rradius 32.2947
rwrist 8.69776
rhand -11.7359 -22.207
rfingers 7.12502
rthumb 14.3115 -51.6938
lclavicle -1.12313e-014 -1.98785e-014
lhumerus -19.8545 14.0172 73.4403
lradius 45.8004
lwrist -8.25545
lhand -9.79771 24.0801
lfingers 7.12502
lthumb 16.1784 53.4249
rfemur -31.6886 -5.07542 18.0838
rtibia 57.2901
rfoot -4.07074 -15.8923
rtoes 6.88796
lfemur -2.40822 -3.23534 -23.1555
ltibia 12.1599
lfoot -9.53701 1.30541
ltoes 4.50429
146
root 13.0508 17.8748 5.54122 190.535 -87.0677 -188.46
lowerback -0.19492 -2.98499 -3.12083
upperback -2.31682 -4.00797 3.2081
thorax -1.83351 -1.94142 5.10513
lowerneck -15.4957 -3.45878 -5.59889
upperneck 20.6046 -5.64535 8.29242
head 9.45509 -2.29069 3.06169
rclavicle -1.98785e-014 -6.36111e-015
rhumerus -31.6194 -27.9413 -59.4139
rradius 29.7733
rwrist 11.2634
rhand -10.6287 -21.399
rfingers 7.12502
rthumb 15.3782 -50.8071
lclavicle -1.98785e-014 -6.36111e-015
lhumerus -20.7389 12.822 75.538
lradius 44.6201
lwrist -10.7856
lhand -9.47664 23.2592
lfingers 7.12502
lthumb 16.4876 52.5786
rfemur -32.1095 -5.08413 18.0118
rtibia 55.2724
rfoot -4.48045 -16.136
rtoes 6.79239
lfemur -1.96849 -3.29148 -23.3321
ltibia 12.0846
lfoot -9.89846 1.33705
ltoes 4.36573
147
root 12.9258 17.864 5.54159 192.247 -87.0774 -190.088
lowerback -0.149397 -3.02343 -3.16832
upperback -2.31491 -4.06023 3.16415
thorax -1.85125 -1.96618 5.08883
lowerneck -15.6876 -3.44506 -5.53211
upperneck 20.4731 -5.67811 8.52938
head 9.45401 -2.27079 3.12566
rclavicle 2.57178e-014 -1.90833e-014
rhumerus -32.1948 -29.6333 -59.7759
rradius 27.3985
rwrist 13.9595
rhand -9.57928 -20.6722
rfingers 7.12502
rthumb 16.3888 -49.9998
lclavicle 2.57178e-014 -1.90833e-014
lhumerus -21.688 11.7756 77.6267
lradius 43.3632
lwrist -13.5196
lhand -9.17164 22.5178
lfingers 7.12502
lthumb 16.7812 51.8126
rfemur -32.4823 -5.03927 17.928
rtibia 53.085
rfoot -4.79397 -16.3887
rtoes 6.86795
lfemur -1.56214 -3.33384 -23.5159
ltibia 12.0135
lfoot -10.26 1.41015
ltoes 4.20012
148
root 12.7993 17.8522 5.54171 193.938 -87.0722 -191.662
lowerback -0.139362 -3.04917 -3.2022
upperback -2.31408 -4.09491 3.13181
thorax -1.85223 -1.98287 5.07481
lowerneck -15.892 -3.43693 -5.48972
upperneck 20.3201 -5.70298 8.74414
head 9.44725 -2.25086 3.18672
rclavicle -1.2921e-015 -7.95139e-016
rhumerus -33.0083 -31.7302 -59.7359
rradius 25.221
rwrist 16.6703
rhand -8.59766 -20.0056
rfingers 7.12502
rthumb 17.3337 -49.2527
lclavicle -1.2921e-015 -7.95139e-016
lhumerus -22.6053 10.9465 79.7016
lradius 42.0438
lwrist -16.4593
lhand -8.78147 21.7954
lfingers 7.12502
lthumb 17.1568 51.0579
rfemur -32.7998 -4.97479 17.8328
rtibia 50.7261
rfoot -5.01256 -16.6483
rtoes 7.12308
lfemur -1.19409 -3.38615 -23.7027
ltibia 11.9582
lfoot -10.6327 1.50821
ltoes 4.02857
149
root 12.6713 17.8393 5.54153 195.544 -87.0475 -193.122
lowerback -0.166273 -3.06308 -3.22548
upperback -2.3126 -4.1131 3.10996
thorax -1.83358 -1.99207 5.06338
lowerneck -16.0907 -3.42901 -5.45346
upperneck 20.1308 -5.71414 8.92739
head 9.42489 -2.22845 3.23922
rclavicle 6.16232e-015 -2.8625e-014
rhumerus -34.0931 -34.0701 -59.3135
rradius 23.2902
rwrist 19.2555
rhand -7.84665 -19.597
rfingers 7.12502
rthumb 18.0564 -48.7788
lclavicle 6.16232e-015 -2.8625e-014
lhumerus -23.4917 10.4666 81.7145
lradius 40.6718
lwrist -19.7197
lhand -8.3263 20.8768
lfingers 7.12502
lthumb 17.5949 50.1007
rfemur -33.0568 -4.88476 17.727
rtibia 48.1986
rfoot -5.12424 -16.898
rtoes 7.50293
lfemur -0.856363 -3.44384 -23.8918
ltibia 11.9125
lfoot -11.0149 1.63467
ltoes 3.84491
150
root 12.5416 17.8253 5.54115 197 -87.0068 -194.401
lowerback -0.229062 -3.07047 -3.23543
upperback -2.30909 -4.12179 3.09406
thorax -1.79419 -1.99737 5.04827
lowerneck -16.2959 -3.4176 -5.40803
upperneck 19.9134 -5.71273 9.08622
head 9.39197 -2.20197 3.28286
rclavicle 7.03201e-015 -8.74653e-015
rhumerus -35.4391 -36.4759 -58.5762
rradius 21.6238
rwrist 21.6155
rhand -7.34772 -19.4514
rfingers 7.12502
rthumb 18.5364 -48.5883
lclavicle 7.03201e-015 -8.74653e-015
lhumerus -24.3723 10.436 83.5994
lradius 39.3012
lwrist -23.3578
lhand -7.84258 19.8344
lfingers 7.12502
lthumb 18.0603 49.0159
rfemur -33.2591 -4.76919 17.6156
rtibia 45.5093
rfoot -5.1077 -17.1214
rtoes 7.81226
lfemur -0.551152 -3.50935 -24.0801
ltibia 11.8822
lfoot -11.4101 1.78919
ltoes 3.65832
151
root 12.4099 17.8102 5.54031 198.236 -86.9564 -195.433
lowerback -0.32156 -3.07829 -3.23384
upperback -2.30413 -4.1304 3.08097
thorax -1.73723 -2.00336 5.02762
lowerneck -16.4974 -3.39578 -5.33651
upperneck 19.6647 -5.6963 9.22841
head 9.34506 -2.16882 3.31785
rclavicle 2.49972e-014 0
rhumerus -37.0017 -38.718 -57.6507
rradius 20.239
rwrist 23.6287
rhand -7.10964 -19.5771
rfingers 7.12502
rthumb 18.7654 -48.6919
lclavicle 2.49972e-014 0
lhumerus -25.2513 10.9283 85.2823
lradius 37.9278
lwrist -27.3927
lhand -7.46198 18.6427
lfingers 7.12502
lthumb 18.4265 47.7899
rfemur -33.4024 -4.6247 17.5039
rtibia 42.6646
rfoot -4.95225 -17.3052
rtoes 8.0027
lfemur -0.275748 -3.58021 -24.2597
ltibia 11.8722
lfoot -11.824 1.97172
ltoes 3.46534
152
root 12.2765 17.7939 5.53927 199.082 -86.8801 -196.046
lowerback -0.443828 -3.08458 -3.21437
upperback -2.29611 -4.13631 3.06671
thorax -1.66199 -2.00884 4.9937
lowerneck -16.6895 -3.36215 -5.23806
upperneck 19.3774 -5.66795 9.37378
head 9.28154 -2.12889 3.35044
rclavicle -4.10987e-014 2.14687e-014
rhumerus -38.6899 -40.6626 -56.6665
rradius 19.1076
rwrist 25.2804
rhand -7.09746 -19.9058
rfingers 7.12502
rthumb 18.7771 -49.0196
lclavicle -4.10987e-014 2.14687e-014
lhumerus -26.135 11.9381 86.7054
lradius 36.5509
lwrist -31.693
lhand -7.46156 17.38
lfingers 7.12502
lthumb 18.4269 46.5272
rfemur -33.4967 -4.43046 17.3973
rtibia 39.6765
rfoot -4.66951 -17.4308
rtoes 8.11241
lfemur -0.0273208 -3.6456 -24.4258
ltibia 11.8741
lfoot -12.2514 2.18335
ltoes 3.26076
